<svg width="56" height="56" viewBox="0 0 24 24" xmlns="http://www.w3.org/2000/svg">
  <path fill="#D1D5DB" d="M19.14 12.94c.04-.3.06-.61.06-.94s-.02-.64-.07-.94l2.03-1.58a.5.5 0 0 0 .12-.64l-1.92-3.32a.5.5 0 0 0-.6-.22l-2.39.96a7.23 7.23 0 0 0-1.62-.94l-.36-2.54a.5.5 0 0 0-.5-.42h-3.84a.5.5 0 0 0-.5.42l-.36 2.54c-.57.22-1.11.52-1.62.94l-2.39-.96a.5.5 0 0 0-.6.22L2.72 8.84a.5.5 0 0 0 .12.64l2.03 1.58c-.05.3-.07.62-.07.94s.02.64.07.94l-2.03 1.58a.5.5 0 0 0-.12.64l1.92 3.32c.12.21.37.3.6.22l2.39-.96c.5.41 1.05.73 1.62.94l.36 2.54c.05.24.25.42.5.42h3.84c.25 0 .45-.18.5-.42l.36-2.54c.57-.22 1.11-.52 1.62-.94l2.39.96c.23.09.48 0 .6-.22l1.92-3.32a.5.5 0 0 0-.12-.64l-2.03-1.58ZM12 15.5A3.5 3.5 0 1 1 12 8.5a3.5 3.5 0 0 1 0 7Z"/>
  <circle cx="12" cy="12" r="2.5" fill="#4B5563"/>
</svg>
