<svg width="56" height="56" viewBox="0 0 24 24" xmlns="http://www.w3.org/2000/svg">
  <rect x="3" y="3" width="18" height="18" rx="2" fill="#D1D5DB"/>
  <path fill="#4B5563" d="M12 6a6 6 0 0 0-1.9 11.7c.3.05.4-.15.4-.3v-1c-1.66.36-2.01-.7-2.01-.7-.27-.68-.66-.86-.66-.86-.54-.37.04-.36.04-.36.6.04.92.62.92.62.53.92 1.38.65 1.72.5.05-.4.2-.66.36-.81-1.33-.15-2.73-.67-2.73-3A2.35 2.35 0 0 1 9 9.2c-.1-.25-.4-1.28.1-2.65 0 0 .82-.27 2.7 1.02.78-.22 1.6-.33 2.42-.33.82 0 1.64.11 2.42.33 1.88-1.29 2.7-1.02 2.7-1.02.5 1.37.2 2.4.1 2.65.57.63.92 1.45.92 2.39 0 2.33-1.4 2.85-2.73 3 .2.17.4.52.4 1.06v1.57c0 .15.1.35.4.3A6 6 0 0 0 12 6Z"/>
</svg>
