<svg width="56" height="56" viewBox="0 0 24 24" xmlns="http://www.w3.org/2000/svg">
  <path fill="#D1D5DB" d="M6.62 10.79a15.053 15.053 0 0 0 6.59 6.59l2.2-2.2a1 1 0 0 1 1.01-.24c1.11.37 2.3.57 3.58.57a1 1 0 0 1 1 1V20a2 2 0 0 1-2 2C9.61 22 2 14.39 2 5a2 2 0 0 1 2-2h3.5a1 1 0 0 1 1 1c0 1.28.2 2.47.57 3.58a1 1 0 0 1-.24 1.01l-2.21 2.2Z"/>
  <path fill="#4B5563" d="M8.5 5.5c0 .98.16 1.9.45 2.77l-1.6 1.6a13.5 13.5 0 0 0 5.78 5.78l1.6-1.6c.87.29 1.79.45 2.77.45V20c-8.28 0-15-6.72-15-15H8.5Z"/>
</svg>
